<mxfile host="app.diagrams.net" modified="2022-04-03T01:53:22.222Z" agent="5.0 (Macintosh; Intel Mac OS X 10_15_6) AppleWebKit/605.1.15 (KHTML, like Gecko) Version/15.4 Safari/605.1.15" etag="_Sw3h2dP9g-ByKbA1S1P" version="17.4.0" type="github">
  <diagram id="GQxc03wrUZDkpx4p0jLh" name="Página-1">
    <mxGraphModel dx="1015" dy="661" grid="1" gridSize="10" guides="1" tooltips="1" connect="1" arrows="1" fold="1" page="1" pageScale="1" pageWidth="827" pageHeight="1169" math="0" shadow="0">
      <root>
        <mxCell id="0" />
        <mxCell id="1" parent="0" />
        <mxCell id="l3GJweXzLjTGuyBsfiMc-8" value="&lt;br&gt;" style="rounded=0;whiteSpace=wrap;html=1;fillColor=none;" parent="1" vertex="1">
          <mxGeometry x="230" y="290" width="430" height="220" as="geometry" />
        </mxCell>
        <mxCell id="l3GJweXzLjTGuyBsfiMc-2" value="" style="sketch=0;outlineConnect=0;fontColor=#232F3E;gradientColor=none;fillColor=#3399FF;strokeColor=none;dashed=0;verticalLabelPosition=bottom;verticalAlign=top;align=center;html=1;fontSize=12;fontStyle=0;aspect=fixed;pointerEvents=1;shape=mxgraph.aws4.rds_mariadb_instance;" parent="1" vertex="1">
          <mxGeometry x="550" y="351" width="78" height="78" as="geometry" />
        </mxCell>
        <mxCell id="l3GJweXzLjTGuyBsfiMc-19" style="edgeStyle=orthogonalEdgeStyle;rounded=0;orthogonalLoop=1;jettySize=auto;html=1;entryX=0;entryY=0.5;entryDx=0;entryDy=0;entryPerimeter=0;" parent="1" source="l3GJweXzLjTGuyBsfiMc-6" target="l3GJweXzLjTGuyBsfiMc-9" edge="1">
          <mxGeometry relative="1" as="geometry" />
        </mxCell>
        <mxCell id="l3GJweXzLjTGuyBsfiMc-6" value="desktop" style="sketch=0;outlineConnect=0;gradientColor=none;fontColor=#545B64;strokeColor=none;fillColor=#3399FF;dashed=0;verticalLabelPosition=bottom;verticalAlign=top;align=center;html=1;fontSize=12;fontStyle=0;aspect=fixed;shape=mxgraph.aws4.illustration_desktop;pointerEvents=1" parent="1" vertex="1">
          <mxGeometry x="50" y="344.5" width="100" height="91" as="geometry" />
        </mxCell>
        <mxCell id="l3GJweXzLjTGuyBsfiMc-16" style="edgeStyle=orthogonalEdgeStyle;rounded=0;orthogonalLoop=1;jettySize=auto;html=1;" parent="1" source="l3GJweXzLjTGuyBsfiMc-9" target="l3GJweXzLjTGuyBsfiMc-11" edge="1">
          <mxGeometry relative="1" as="geometry" />
        </mxCell>
        <mxCell id="l3GJweXzLjTGuyBsfiMc-9" value="" style="sketch=0;points=[[0,0,0],[0.25,0,0],[0.5,0,0],[0.75,0,0],[1,0,0],[0,1,0],[0.25,1,0],[0.5,1,0],[0.75,1,0],[1,1,0],[0,0.25,0],[0,0.5,0],[0,0.75,0],[1,0.25,0],[1,0.5,0],[1,0.75,0]];outlineConnect=0;fontColor=#232F3E;gradientDirection=north;fillColor=#3399FF;strokeColor=#ffffff;dashed=0;verticalLabelPosition=bottom;verticalAlign=top;align=center;html=1;fontSize=12;fontStyle=0;aspect=fixed;shape=mxgraph.aws4.resourceIcon;resIcon=mxgraph.aws4.mobile;" parent="1" vertex="1">
          <mxGeometry x="266" y="351" width="78" height="78" as="geometry" />
        </mxCell>
        <mxCell id="l3GJweXzLjTGuyBsfiMc-10" value="" style="sketch=0;outlineConnect=0;fontColor=#232F3E;gradientColor=none;fillColor=#3399FF;strokeColor=none;dashed=0;verticalLabelPosition=bottom;verticalAlign=top;align=center;html=1;fontSize=12;fontStyle=0;aspect=fixed;pointerEvents=1;shape=mxgraph.aws4.traditional_server;" parent="1" vertex="1">
          <mxGeometry x="615" y="510" width="45" height="78" as="geometry" />
        </mxCell>
        <mxCell id="l3GJweXzLjTGuyBsfiMc-17" style="edgeStyle=orthogonalEdgeStyle;rounded=0;orthogonalLoop=1;jettySize=auto;html=1;" parent="1" source="l3GJweXzLjTGuyBsfiMc-11" target="l3GJweXzLjTGuyBsfiMc-2" edge="1">
          <mxGeometry relative="1" as="geometry" />
        </mxCell>
        <mxCell id="l3GJweXzLjTGuyBsfiMc-11" value="" style="sketch=0;points=[[0,0,0],[0.25,0,0],[0.5,0,0],[0.75,0,0],[1,0,0],[0,1,0],[0.25,1,0],[0.5,1,0],[0.75,1,0],[1,1,0],[0,0.25,0],[0,0.5,0],[0,0.75,0],[1,0.25,0],[1,0.5,0],[1,0.75,0]];gradientDirection=north;outlineConnect=0;fontColor=#232F3E;fillColor=#3399FF;strokeColor=#ffffff;dashed=0;verticalLabelPosition=bottom;verticalAlign=top;align=center;html=1;fontSize=12;fontStyle=0;aspect=fixed;shape=mxgraph.aws4.resourceIcon;resIcon=mxgraph.aws4.general;" parent="1" vertex="1">
          <mxGeometry x="400" y="350" width="80" height="80" as="geometry" />
        </mxCell>
        <mxCell id="l3GJweXzLjTGuyBsfiMc-12" value="Servidor" style="text;html=1;align=center;verticalAlign=middle;resizable=0;points=[];autosize=1;strokeColor=none;fillColor=none;" parent="1" vertex="1">
          <mxGeometry x="607.5" y="588" width="60" height="20" as="geometry" />
        </mxCell>
        <mxCell id="l3GJweXzLjTGuyBsfiMc-13" value="Camada de serviço" style="text;html=1;align=center;verticalAlign=middle;resizable=0;points=[];autosize=1;strokeColor=none;fillColor=none;" parent="1" vertex="1">
          <mxGeometry x="380" y="450" width="120" height="20" as="geometry" />
        </mxCell>
        <mxCell id="l3GJweXzLjTGuyBsfiMc-14" value="Interface Usuário" style="text;html=1;align=center;verticalAlign=middle;resizable=0;points=[];autosize=1;strokeColor=none;fillColor=none;" parent="1" vertex="1">
          <mxGeometry x="250" y="450" width="110" height="20" as="geometry" />
        </mxCell>
      </root>
    </mxGraphModel>
  </diagram>
</mxfile>
